<svg width="20" height="21" viewBox="0 0 20 21" fill="none" xmlns="http://www.w3.org/2000/svg">
<g clip-path="url(#clip0_592_1044)">
<path fill-rule="evenodd" clip-rule="evenodd" d="M9.99978 0.85714C8.34331 0.85714 6.75469 1.51517 5.58339 2.68647C4.4121 3.85777 3.75407 5.44639 3.75407 7.10285C3.75407 8.28142 3.54692 9.17857 3.25692 9.85857C3.17692 10.0486 3.01407 10.2129 2.69978 10.4157C2.5703 10.4953 2.43932 10.5725 2.30692 10.6471L2.17407 10.7243C1.96406 10.8428 1.76088 10.973 1.5655 11.1143C0.825495 11.6614 0.554067 12.5043 0.59121 13.2643C0.626924 14.0029 0.958353 14.7743 1.57692 15.24C1.61631 15.2714 1.65784 15.3001 1.70121 15.3257C1.80441 15.3929 1.91231 15.4526 2.02407 15.5043C2.30407 15.6386 2.72835 15.8014 3.34978 15.9586C4.59264 16.2729 6.65121 16.5714 9.99978 16.5714C13.3484 16.5714 15.4069 16.2729 16.6498 15.9586C17.2712 15.8014 17.6955 15.6386 17.9755 15.5043C18.1214 15.4349 18.2614 15.3537 18.3941 15.2614C18.4037 15.2544 18.4132 15.2473 18.4226 15.24C19.0412 14.7743 19.3726 14.0029 19.4084 13.2643C19.4455 12.5043 19.1741 11.6614 18.4341 11.1143C18.2387 10.973 18.0355 10.8428 17.8255 10.7243L17.6926 10.6471C17.5603 10.5726 17.4298 10.495 17.3012 10.4143C16.9869 10.2143 16.8226 10.0486 16.7412 9.85857C16.6788 9.71065 16.623 9.56002 16.5741 9.40714C16.3712 8.62142 16.2455 7.87857 16.2455 7.10285C16.2457 6.2826 16.0843 5.47035 15.7705 4.7125C15.4566 3.95465 14.9966 3.26605 14.4166 2.68605C13.8366 2.10604 13.148 1.64599 12.3901 1.33218C11.6323 1.01837 10.82 0.856952 9.99978 0.85714Z" fill="#8B95EE"/>
<path fill-rule="evenodd" clip-rule="evenodd" d="M7.56588 17.8357C7.65857 17.7265 7.78197 17.6476 7.92005 17.6094C8.05812 17.5712 8.2045 17.5754 8.34017 17.6214C8.70303 17.7443 9.23731 17.8386 10.0002 17.8386C10.763 17.8386 11.2973 17.7443 11.6602 17.6214C11.7959 17.5754 11.9424 17.5713 12.0805 17.6097C12.2186 17.648 12.3419 17.727 12.4346 17.8364C12.5272 17.9458 12.5847 18.0806 12.5997 18.2231C12.6147 18.3657 12.5865 18.5094 12.5187 18.6357C12.2746 19.0914 11.9115 19.4723 11.4679 19.7379C11.0244 20.0035 10.5171 20.1438 10.0002 20.1438C9.48321 20.1438 8.97593 20.0035 8.5324 19.7379C8.08887 19.4723 7.7257 19.0914 7.4816 18.6357C7.41367 18.5093 7.38538 18.3654 7.40042 18.2227C7.41545 18.08 7.47311 17.9452 7.56588 17.8357Z" fill="#444B88"/>
</g>
<defs>
<clipPath id="clip0_592_1044">
<rect width="20" height="20" fill="white" transform="translate(0 0.5)"/>
</clipPath>
</defs>
</svg>
