<svg width="50" height="45" viewBox="0 0 50 45" fill="none" xmlns="http://www.w3.org/2000/svg">
<path d="M37.3475 0C40.7 0 43.925 1.325 46.2975 3.7025C48.6725 6.075 50 9.275 50 12.625V32.375C50 39.35 44.325 45 37.3475 45H12.65C5.6725 45 0 39.35 0 32.375V12.625C0 5.65 5.6475 0 12.65 0H37.3475ZM40.175 13C39.65 12.9725 39.15 13.15 38.7725 13.5L27.5 22.5C26.05 23.7025 23.9725 23.7025 22.5 22.5L11.25 13.5C10.4725 12.925 9.3975 13 8.75 13.675C8.075 14.35 8 15.425 8.5725 16.175L8.9 16.5L20.275 25.375C21.675 26.475 23.3725 27.075 25.15 27.075C26.9225 27.075 28.65 26.475 30.0475 25.375L41.325 16.35L41.525 16.15C42.1225 15.425 42.1225 14.375 41.4975 13.65C41.15 13.2775 40.6725 13.05 40.175 13Z" fill="#8B95EE"/>
</svg>
