<svg width="24" height="25" viewBox="0 0 24 25" fill="none" xmlns="http://www.w3.org/2000/svg">
<g clip-path="url(#clip0_592_1051)">
<path d="M0 12.5C0 15.6826 1.26428 18.7348 3.51472 20.9853C5.76515 23.2357 8.8174 24.5 12 24.5C15.1826 24.5 18.2348 23.2357 20.4853 20.9853C22.7357 18.7348 24 15.6826 24 12.5C24 9.3174 22.7357 6.26515 20.4853 4.01472C18.2348 1.76428 15.1826 0.5 12 0.5C8.8174 0.5 5.76515 1.76428 3.51472 4.01472C1.26428 6.26515 0 9.3174 0 12.5Z" fill="#9AA4FF"/>
<path d="M7.71484 9.07143C7.71484 10.2081 8.16637 11.2982 8.9701 12.1019C9.77383 12.9056 10.8639 13.3571 12.0006 13.3571C13.1372 13.3571 14.2273 12.9056 15.031 12.1019C15.8347 11.2982 16.2863 10.2081 16.2863 9.07143C16.2863 7.93479 15.8347 6.8447 15.031 6.04097C14.2273 5.23724 13.1372 4.78571 12.0006 4.78571C10.8639 4.78571 9.77383 5.23724 8.9701 6.04097C8.16637 6.8447 7.71484 7.93479 7.71484 9.07143Z" fill="#444B88"/>
<path d="M19.274 18.5C18.3902 17.4266 17.2795 16.5624 16.0218 15.9696C14.7641 15.3768 13.3907 15.07 12.0003 15.0714C10.6099 15.07 9.23642 15.3768 7.97873 15.9696C6.72104 16.5624 5.61036 17.4266 4.72656 18.5C5.61036 19.5734 6.72104 20.4376 7.97873 21.0304C9.23642 21.6232 10.6099 21.93 12.0003 21.9286C13.3907 21.93 14.7641 21.6232 16.0218 21.0304C17.2795 20.4376 18.3902 19.5734 19.274 18.5Z" fill="#444B88"/>
</g>
<defs>
<clipPath id="clip0_592_1051">
<rect width="24" height="24" fill="white" transform="translate(0 0.5)"/>
</clipPath>
</defs>
</svg>
